<mxfile host="www.draw.io" modified="2020-02-03T03:38:04.229Z" agent="Mozilla/5.0 (Windows NT 10.0; Win64; x64) AppleWebKit/537.36 (KHTML, like Gecko) Chrome/79.0.3945.130 Safari/537.36" etag="WjfjWI-HUXEAVznauRH9" version="12.6.4" type="github">
  <diagram id="CQ3KaExliSfZ6187Da4M" name="Page-1">
    <mxGraphModel dx="1422" dy="745" grid="1" gridSize="10" guides="1" tooltips="1" connect="1" arrows="1" fold="1" page="1" pageScale="1" pageWidth="1169" pageHeight="827" math="0" shadow="0">
      <root>
        <mxCell id="0"/>
        <mxCell id="1" parent="0"/>
        <mxCell id="skK5ssZXJBMdEnIlcwYf-1" value="Digital Certificate&lt;br style=&quot;font-size: 30px;&quot;&gt;(Driver License Analogy)" style="text;html=1;align=center;verticalAlign=middle;resizable=0;points=[];autosize=1;fontSize=30;fontStyle=1" vertex="1" parent="1">
          <mxGeometry x="399" y="10" width="370" height="80" as="geometry"/>
        </mxCell>
        <mxCell id="skK5ssZXJBMdEnIlcwYf-2" value="Name: Bob&lt;br&gt;Exp: 2026&lt;br&gt;Issuer: DMV&lt;br&gt;&lt;br&gt;&lt;u&gt;Signature &lt;/u&gt;by DMV" style="whiteSpace=wrap;html=1;aspect=fixed;fontSize=30;verticalAlign=bottom;" vertex="1" parent="1">
          <mxGeometry x="60" y="240" width="280" height="280" as="geometry"/>
        </mxCell>
        <mxCell id="skK5ssZXJBMdEnIlcwYf-4" value="" style="shape=actor;whiteSpace=wrap;html=1;fontSize=30;" vertex="1" parent="1">
          <mxGeometry x="80" y="250" width="40" height="60" as="geometry"/>
        </mxCell>
        <mxCell id="skK5ssZXJBMdEnIlcwYf-6" value="&lt;font style=&quot;font-size: 29px&quot;&gt;Amazon &lt;b&gt;&lt;font color=&quot;#7ea6e0&quot;&gt;Public &lt;/font&gt;&lt;/b&gt;Key&lt;br&gt;&lt;br&gt;Name: Amazon.com&lt;br&gt;Exp: 2026&lt;br&gt;Issuer: DigiCert&lt;br&gt;&lt;br&gt;&lt;u&gt;Signature &lt;/u&gt;by DigiCert&lt;/font&gt;" style="whiteSpace=wrap;html=1;aspect=fixed;fontSize=30;verticalAlign=bottom;" vertex="1" parent="1">
          <mxGeometry x="710" y="240" width="280" height="280" as="geometry"/>
        </mxCell>
        <mxCell id="skK5ssZXJBMdEnIlcwYf-8" value="Bob&#39;s&lt;br&gt;Driver License" style="text;html=1;align=center;verticalAlign=middle;resizable=0;points=[];autosize=1;fontSize=30;" vertex="1" parent="1">
          <mxGeometry x="95" y="150" width="210" height="80" as="geometry"/>
        </mxCell>
        <mxCell id="skK5ssZXJBMdEnIlcwYf-9" value="Amazon&#39;s&lt;br&gt;Digital Certificate" style="text;html=1;align=center;verticalAlign=middle;resizable=0;points=[];autosize=1;fontSize=30;" vertex="1" parent="1">
          <mxGeometry x="730" y="150" width="240" height="80" as="geometry"/>
        </mxCell>
        <mxCell id="skK5ssZXJBMdEnIlcwYf-10" value="&lt;font style=&quot;font-size: 16px&quot;&gt;Trusted Third Party&lt;/font&gt;" style="whiteSpace=wrap;html=1;shape=partialRectangle;top=0;left=0;bottom=1;right=0;points=[[0,1],[1,1]];strokeColor=#000000;fillColor=none;align=center;verticalAlign=middle;routingCenterY=0.5;snapToPoint=1;container=1;recursiveResize=0;autosize=1;treeFolding=1;treeMoving=1;fontSize=30;horizontal=1;" vertex="1" parent="1">
          <mxGeometry x="1010" y="430" width="145" height="50" as="geometry"/>
        </mxCell>
        <mxCell id="skK5ssZXJBMdEnIlcwYf-11" value="" style="edgeStyle=entityRelationEdgeStyle;startArrow=none;endArrow=none;segment=10;curved=1;fontSize=30;dashed=1;" edge="1" target="skK5ssZXJBMdEnIlcwYf-10" parent="1">
          <mxGeometry relative="1" as="geometry">
            <mxPoint x="990" y="500" as="sourcePoint"/>
          </mxGeometry>
        </mxCell>
        <mxCell id="skK5ssZXJBMdEnIlcwYf-12" value="" style="endArrow=classic;startArrow=classic;html=1;fontSize=30;exitX=0.9;exitY=0.5;exitDx=0;exitDy=0;exitPerimeter=0;entryX=-0.004;entryY=0.154;entryDx=0;entryDy=0;entryPerimeter=0;strokeWidth=2;fillColor=#d5e8d4;strokeColor=#82b366;" edge="1" parent="1" source="skK5ssZXJBMdEnIlcwYf-4" target="skK5ssZXJBMdEnIlcwYf-6">
          <mxGeometry width="50" height="50" relative="1" as="geometry">
            <mxPoint x="380" y="290" as="sourcePoint"/>
            <mxPoint x="680" y="290" as="targetPoint"/>
          </mxGeometry>
        </mxCell>
        <mxCell id="skK5ssZXJBMdEnIlcwYf-13" value="" style="endArrow=classic;startArrow=classic;html=1;fontSize=30;entryX=-0.007;entryY=0.407;entryDx=0;entryDy=0;entryPerimeter=0;strokeWidth=2;fillColor=#d5e8d4;strokeColor=#82b366;" edge="1" parent="1" target="skK5ssZXJBMdEnIlcwYf-6">
          <mxGeometry width="50" height="50" relative="1" as="geometry">
            <mxPoint x="280" y="354" as="sourcePoint"/>
            <mxPoint x="872.8800000000001" y="363.1199999999999" as="targetPoint"/>
          </mxGeometry>
        </mxCell>
        <mxCell id="skK5ssZXJBMdEnIlcwYf-14" value="" style="endArrow=classic;startArrow=classic;html=1;fontSize=30;exitX=0.9;exitY=0.5;exitDx=0;exitDy=0;exitPerimeter=0;strokeWidth=2;fillColor=#d5e8d4;strokeColor=#82b366;" edge="1" parent="1">
          <mxGeometry width="50" height="50" relative="1" as="geometry">
            <mxPoint x="270" y="390" as="sourcePoint"/>
            <mxPoint x="780" y="393" as="targetPoint"/>
          </mxGeometry>
        </mxCell>
        <mxCell id="skK5ssZXJBMdEnIlcwYf-15" value="" style="endArrow=classic;startArrow=classic;html=1;fontSize=30;exitX=0.9;exitY=0.5;exitDx=0;exitDy=0;exitPerimeter=0;strokeWidth=2;fillColor=#d5e8d4;strokeColor=#82b366;" edge="1" parent="1">
          <mxGeometry width="50" height="50" relative="1" as="geometry">
            <mxPoint x="288" y="430" as="sourcePoint"/>
            <mxPoint x="740" y="433" as="targetPoint"/>
          </mxGeometry>
        </mxCell>
        <mxCell id="skK5ssZXJBMdEnIlcwYf-16" value="" style="endArrow=classic;startArrow=classic;html=1;fontSize=30;exitX=0.9;exitY=0.5;exitDx=0;exitDy=0;exitPerimeter=0;entryX=0;entryY=0.946;entryDx=0;entryDy=0;entryPerimeter=0;strokeWidth=2;fillColor=#d5e8d4;strokeColor=#82b366;" edge="1" parent="1" target="skK5ssZXJBMdEnIlcwYf-6">
          <mxGeometry width="50" height="50" relative="1" as="geometry">
            <mxPoint x="320" y="500" as="sourcePoint"/>
            <mxPoint x="912.8800000000001" y="503.1199999999999" as="targetPoint"/>
          </mxGeometry>
        </mxCell>
        <mxCell id="skK5ssZXJBMdEnIlcwYf-17" value="Similarities" style="text;html=1;align=center;verticalAlign=middle;resizable=0;points=[];autosize=1;fontSize=20;" vertex="1" parent="1">
          <mxGeometry x="470" y="630" width="110" height="30" as="geometry"/>
        </mxCell>
        <mxCell id="skK5ssZXJBMdEnIlcwYf-18" value="" style="endArrow=none;dashed=1;html=1;strokeWidth=1;fontSize=20;" edge="1" parent="1">
          <mxGeometry width="50" height="50" relative="1" as="geometry">
            <mxPoint x="520" y="630" as="sourcePoint"/>
            <mxPoint x="460" y="280" as="targetPoint"/>
          </mxGeometry>
        </mxCell>
        <mxCell id="skK5ssZXJBMdEnIlcwYf-19" value="" style="endArrow=none;dashed=1;html=1;strokeWidth=1;fontSize=20;exitX=0.491;exitY=-0.133;exitDx=0;exitDy=0;exitPerimeter=0;" edge="1" parent="1" source="skK5ssZXJBMdEnIlcwYf-17">
          <mxGeometry width="50" height="50" relative="1" as="geometry">
            <mxPoint x="640" y="588" as="sourcePoint"/>
            <mxPoint x="580" y="350" as="targetPoint"/>
          </mxGeometry>
        </mxCell>
        <mxCell id="skK5ssZXJBMdEnIlcwYf-20" value="" style="endArrow=none;dashed=1;html=1;strokeWidth=1;fontSize=20;" edge="1" parent="1">
          <mxGeometry width="50" height="50" relative="1" as="geometry">
            <mxPoint x="520" y="630" as="sourcePoint"/>
            <mxPoint x="530" y="390" as="targetPoint"/>
          </mxGeometry>
        </mxCell>
        <mxCell id="skK5ssZXJBMdEnIlcwYf-21" value="" style="endArrow=none;dashed=1;html=1;strokeWidth=1;fontSize=20;exitX=0.4;exitY=0.067;exitDx=0;exitDy=0;exitPerimeter=0;" edge="1" parent="1" source="skK5ssZXJBMdEnIlcwYf-17">
          <mxGeometry width="50" height="50" relative="1" as="geometry">
            <mxPoint x="550" y="660" as="sourcePoint"/>
            <mxPoint x="430" y="430" as="targetPoint"/>
          </mxGeometry>
        </mxCell>
        <mxCell id="skK5ssZXJBMdEnIlcwYf-22" value="" style="endArrow=none;dashed=1;html=1;strokeWidth=1;fontSize=20;exitX=0.536;exitY=0.067;exitDx=0;exitDy=0;exitPerimeter=0;" edge="1" parent="1" source="skK5ssZXJBMdEnIlcwYf-17">
          <mxGeometry width="50" height="50" relative="1" as="geometry">
            <mxPoint x="560" y="670" as="sourcePoint"/>
            <mxPoint x="600" y="500" as="targetPoint"/>
          </mxGeometry>
        </mxCell>
      </root>
    </mxGraphModel>
  </diagram>
</mxfile>
